<svg id="visual" viewBox="0 0 1920 1080" width="1920" height="1080" xmlns="http://www.w3.org/2000/svg" xmlns:xlink="http://www.w3.org/1999/xlink" version="1.1"><path d="M0 314L53.3 339.2C106.7 364.3 213.3 414.7 320 405.7C426.7 396.7 533.3 328.3 640 310.3C746.7 292.3 853.3 324.7 960 351.7C1066.7 378.7 1173.3 400.3 1280 387.8C1386.7 375.3 1493.3 328.7 1600 328.7C1706.7 328.7 1813.3 375.3 1866.7 398.7L1920 422L1920 0L1866.7 0C1813.3 0 1706.7 0 1600 0C1493.3 0 1386.7 0 1280 0C1173.3 0 1066.7 0 960 0C853.3 0 746.7 0 640 0C533.3 0 426.7 0 320 0C213.3 0 106.7 0 53.3 0L0 0Z" fill="#ffffff"></path><path d="M0 509L53.3 527C106.7 545 213.3 581 320 559.3C426.7 537.7 533.3 458.3 640 451C746.7 443.7 853.3 508.3 960 539C1066.7 569.7 1173.3 566.3 1280 548.3C1386.7 530.3 1493.3 497.7 1600 497.7C1706.7 497.7 1813.3 530.3 1866.7 546.7L1920 563L1920 420L1866.7 396.7C1813.3 373.3 1706.7 326.7 1600 326.7C1493.3 326.7 1386.7 373.3 1280 385.8C1173.3 398.3 1066.7 376.7 960 349.7C853.3 322.7 746.7 290.3 640 308.3C533.3 326.3 426.7 394.7 320 403.7C213.3 412.7 106.7 362.3 53.3 337.2L0 312Z" fill="#f3b9b9"></path><path d="M0 703L53.3 719.2C106.7 735.3 213.3 767.7 320 747.8C426.7 728 533.3 656 640 657.8C746.7 659.7 853.3 735.3 960 760.5C1066.7 785.7 1173.3 760.3 1280 746C1386.7 731.7 1493.3 728.3 1600 737.3C1706.7 746.3 1813.3 767.7 1866.7 778.3L1920 789L1920 561L1866.7 544.7C1813.3 528.3 1706.7 495.7 1600 495.7C1493.3 495.7 1386.7 528.3 1280 546.3C1173.3 564.3 1066.7 567.7 960 537C853.3 506.3 746.7 441.7 640 449C533.3 456.3 426.7 535.7 320 557.3C213.3 579 106.7 543 53.3 525L0 507Z" fill="#dd7278"></path><path d="M0 1081L53.3 1081C106.7 1081 213.3 1081 320 1081C426.7 1081 533.3 1081 640 1081C746.7 1081 853.3 1081 960 1081C1066.7 1081 1173.3 1081 1280 1081C1386.7 1081 1493.3 1081 1600 1081C1706.7 1081 1813.3 1081 1866.7 1081L1920 1081L1920 787L1866.7 776.3C1813.3 765.7 1706.7 744.3 1600 735.3C1493.3 726.3 1386.7 729.7 1280 744C1173.3 758.3 1066.7 783.7 960 758.5C853.3 733.3 746.7 657.7 640 655.8C533.3 654 426.7 726 320 745.8C213.3 765.7 106.7 733.3 53.3 717.2L0 701Z" fill="#be133d"></path></svg>