<svg id="visual" viewBox="0 0 1920 1080" width="1920" height="1080" xmlns="http://www.w3.org/2000/svg" xmlns:xlink="http://www.w3.org/1999/xlink" version="1.1"><path d="M0 260L35.5 261.8C71 263.7 142 267.3 213.2 276.3C284.3 285.3 355.7 299.7 426.8 296C498 292.3 569 270.7 640 258.2C711 245.7 782 242.3 853.2 256.8C924.3 271.3 995.7 303.7 1066.8 310.8C1138 318 1209 300 1280 292.8C1351 285.7 1422 289.3 1493.2 280.3C1564.3 271.3 1635.7 249.7 1706.8 249.7C1778 249.7 1849 271.3 1884.5 282.2L1920 293L1920 0L1884.5 0C1849 0 1778 0 1706.8 0C1635.7 0 1564.3 0 1493.2 0C1422 0 1351 0 1280 0C1209 0 1138 0 1066.8 0C995.7 0 924.3 0 853.2 0C782 0 711 0 640 0C569 0 498 0 426.8 0C355.7 0 284.3 0 213.2 0C142 0 71 0 35.5 0L0 0Z" fill="#18181B"></path><path d="M0 368L35.5 375.2C71 382.3 142 396.7 213.2 411.2C284.3 425.7 355.7 440.3 426.8 431.3C498 422.3 569 389.7 640 380.7C711 371.7 782 386.3 853.2 400.8C924.3 415.3 995.7 429.7 1066.8 435C1138 440.3 1209 436.7 1280 431.2C1351 425.7 1422 418.3 1493.2 404C1564.3 389.7 1635.7 368.3 1706.8 375.7C1778 383 1849 419 1884.5 437L1920 455L1920 291L1884.5 280.2C1849 269.3 1778 247.7 1706.8 247.7C1635.7 247.7 1564.3 269.3 1493.2 278.3C1422 287.3 1351 283.7 1280 290.8C1209 298 1138 316 1066.8 308.8C995.7 301.7 924.3 269.3 853.2 254.8C782 240.3 711 243.7 640 256.2C569 268.7 498 290.3 426.8 294C355.7 297.7 284.3 283.3 213.2 274.3C142 265.3 71 261.7 35.5 259.8L0 258Z" fill="#30273c"></path><path d="M0 487L35.5 492.3C71 497.7 142 508.3 213.2 524.5C284.3 540.7 355.7 562.3 426.8 557C498 551.7 569 519.3 640 505C711 490.7 782 494.3 853.2 501.5C924.3 508.7 995.7 519.3 1066.8 530.2C1138 541 1209 552 1280 552C1351 552 1422 541 1493.2 526.5C1564.3 512 1635.7 494 1706.8 503C1778 512 1849 548 1884.5 566L1920 584L1920 453L1884.5 435C1849 417 1778 381 1706.8 373.7C1635.7 366.3 1564.3 387.7 1493.2 402C1422 416.3 1351 423.7 1280 429.2C1209 434.7 1138 438.3 1066.8 433C995.7 427.7 924.3 413.3 853.2 398.8C782 384.3 711 369.7 640 378.7C569 387.7 498 420.3 426.8 429.3C355.7 438.3 284.3 423.7 213.2 409.2C142 394.7 71 380.3 35.5 373.2L0 366Z" fill="#4f2a4f"></path><path d="M0 606L35.5 607.8C71 609.7 142 613.3 213.2 624.2C284.3 635 355.7 653 426.8 645.7C498 638.3 569 605.7 640 596.7C711 587.7 782 602.3 853.2 615C924.3 627.7 995.7 638.3 1066.8 647.3C1138 656.3 1209 663.7 1280 660C1351 656.3 1422 641.7 1493.2 629C1564.3 616.3 1635.7 605.7 1706.8 613C1778 620.3 1849 645.7 1884.5 658.3L1920 671L1920 582L1884.5 564C1849 546 1778 510 1706.8 501C1635.7 492 1564.3 510 1493.2 524.5C1422 539 1351 550 1280 550C1209 550 1138 539 1066.8 528.2C995.7 517.3 924.3 506.7 853.2 499.5C782 492.3 711 488.7 640 503C569 517.3 498 549.7 426.8 555C355.7 560.3 284.3 538.7 213.2 522.5C142 506.3 71 495.7 35.5 490.3L0 485Z" fill="#762656"></path><path d="M0 789L35.5 794.5C71 800 142 811 213.2 821.8C284.3 832.7 355.7 843.3 426.8 830.7C498 818 569 782 640 773C711 764 782 782 853.2 792.8C924.3 803.7 995.7 807.3 1066.8 812.8C1138 818.3 1209 825.7 1280 829.3C1351 833 1422 833 1493.2 822.2C1564.3 811.3 1635.7 789.7 1706.8 786C1778 782.3 1849 796.7 1884.5 803.8L1920 811L1920 669L1884.5 656.3C1849 643.7 1778 618.3 1706.8 611C1635.7 603.7 1564.3 614.3 1493.2 627C1422 639.7 1351 654.3 1280 658C1209 661.7 1138 654.3 1066.8 645.3C995.7 636.3 924.3 625.7 853.2 613C782 600.3 711 585.7 640 594.7C569 603.7 498 636.3 426.8 643.7C355.7 651 284.3 633 213.2 622.2C142 611.3 71 607.7 35.5 605.8L0 604Z" fill="#9d1a50"></path><path d="M0 1081L35.5 1081C71 1081 142 1081 213.2 1081C284.3 1081 355.7 1081 426.8 1081C498 1081 569 1081 640 1081C711 1081 782 1081 853.2 1081C924.3 1081 995.7 1081 1066.8 1081C1138 1081 1209 1081 1280 1081C1351 1081 1422 1081 1493.2 1081C1564.3 1081 1635.7 1081 1706.8 1081C1778 1081 1849 1081 1884.5 1081L1920 1081L1920 809L1884.5 801.8C1849 794.7 1778 780.3 1706.8 784C1635.7 787.7 1564.3 809.3 1493.2 820.2C1422 831 1351 831 1280 827.3C1209 823.7 1138 816.3 1066.8 810.8C995.7 805.3 924.3 801.7 853.2 790.8C782 780 711 762 640 771C569 780 498 816 426.8 828.7C355.7 841.3 284.3 830.7 213.2 819.8C142 809 71 798 35.5 792.5L0 787Z" fill="#be133d"></path></svg>