<svg id="visual" viewBox="0 0 3840 1080" width="3840" height="1080" xmlns="http://www.w3.org/2000/svg" xmlns:xlink="http://www.w3.org/1999/xlink" version="1.1">
    <style type="text/css" media="screen">  
        <![CDATA[  
            svg path {
                animation: oceanWave 60s linear infinite;
            }

        @keyframes oceanWave {
            0% { transform: translate(0, 0); }
            25% { transform: translate(-25%, 0); }
            50% { transform: translate(-50%, 0); 
            75% { transform: translate(-75%, 0); }
            100% { transform: translate(-100%, 0); }
            }
        ]]>  
    </style>
    <rect x="0" y="0" width="3840" height="1080" fill="#18181b"></rect>
    <path d="M0 336L80 349.8C160 363.7 320 391.3 480 391.8C640 392.3 800 365.7 960 366.8C1120 368 1280 397 1440 394.8C1600 392.7 1760 359.3 1920 369.5C2080 379.7 2240 433.3 2400 444.8C2560 456.3 2720 425.7 2880 426.2C3040 426.7 3200 458.3 3360 447.7C3520 437 3680 384 3760 357.5L3840 331L3840 1081L3760 1081C3680 1081 3520 1081 3360 1081C3200 1081 3040 1081 2880 1081C2720 1081 2560 1081 2400 1081C2240 1081 2080 1081 1920 1081C1760 1081 1600 1081 1440 1081C1280 1081 1120 1081 960 1081C800 1081 640 1081 480 1081C320 1081 160 1081 80 1081L0 1081Z" fill="#30273c"></path>
    <path d="M0 529L80 524.5C160 520 320 511 480 513.2C640 515.3 800 528.7 960 524C1120 519.3 1280 496.7 1440 506.3C1600 516 1760 558 1920 580.7C2080 603.3 2240 606.7 2400 587.5C2560 568.3 2720 526.7 2880 504.5C3040 482.3 3200 479.7 3360 492.2C3520 504.7 3680 532.3 3760 546.2L3840 560L3840 1081L3760 1081C3680 1081 3520 1081 3360 1081C3200 1081 3040 1081 2880 1081C2720 1081 2560 1081 2400 1081C2240 1081 2080 1081 1920 1081C1760 1081 1600 1081 1440 1081C1280 1081 1120 1081 960 1081C800 1081 640 1081 480 1081C320 1081 160 1081 80 1081L0 1081Z" fill="#4f2a4f"></path>
    <path d="M0 593L80 602.2C160 611.3 320 629.7 480 634.3C640 639 800 630 960 630.2C1120 630.3 1280 639.7 1440 649C1600 658.3 1760 667.7 1920 679C2080 690.3 2240 703.7 2400 705.2C2560 706.7 2720 696.3 2880 680.2C3040 664 3200 642 3360 627.8C3520 613.7 3680 607.3 3760 604.2L3840 601L3840 1081L3760 1081C3680 1081 3520 1081 3360 1081C3200 1081 3040 1081 2880 1081C2720 1081 2560 1081 2400 1081C2240 1081 2080 1081 1920 1081C1760 1081 1600 1081 1440 1081C1280 1081 1120 1081 960 1081C800 1081 640 1081 480 1081C320 1081 160 1081 80 1081L0 1081Z" fill="#762657"></path>
    <path d="M0 785L80 798.2C160 811.3 320 837.7 480 838.8C640 840 800 816 960 808C1120 800 1280 808 1440 818.7C1600 829.3 1760 842.7 1920 841.8C2080 841 2240 826 2400 811.8C2560 797.7 2720 784.3 2880 793.2C3040 802 3200 833 3360 851.8C3520 870.7 3680 877.3 3760 880.7L3840 884L3840 1081L3760 1081C3680 1081 3520 1081 3360 1081C3200 1081 3040 1081 2880 1081C2720 1081 2560 1081 2400 1081C2240 1081 2080 1081 1920 1081C1760 1081 1600 1081 1440 1081C1280 1081 1120 1081 960 1081C800 1081 640 1081 480 1081C320 1081 160 1081 80 1081L0 1081Z" fill="#9d1a50"></path>
    <path d="M0 927L80 917C160 907 320 887 480 893.2C640 899.3 800 931.7 960 931.3C1120 931 1280 898 1440 885C1600 872 1760 879 1920 880.3C2080 881.7 2240 877.3 2400 887.5C2560 897.7 2720 922.3 2880 940.7C3040 959 3200 971 3360 966.5C3520 962 3680 941 3760 930.5L3840 920L3840 1081L3760 1081C3680 1081 3520 1081 3360 1081C3200 1081 3040 1081 2880 1081C2720 1081 2560 1081 2400 1081C2240 1081 2080 1081 1920 1081C1760 1081 1600 1081 1440 1081C1280 1081 1120 1081 960 1081C800 1081 640 1081 480 1081C320 1081 160 1081 80 1081L0 1081Z" fill="#be123c"></path>
</svg>