<svg id="visual" viewBox="0 0 3840 1080" width="3840" height="1080" xmlns="http://www.w3.org/2000/svg" xmlns:xlink="http://www.w3.org/1999/xlink" version="1.1">
    <style type="text/css" media="screen">  
        <![CDATA[  
            svg path {
                animation: oceanWave 60s linear infinite;
            }

        @keyframes oceanWave {
            0% { transform: translate(0, 0); }
            25% { transform: translate(-25%, 0); }
            50% { transform: translate(-50%, 0); 
            75% { transform: translate(-75%, 0); }
            100% { transform: translate(-100%, 0); }
            }
        ]]>  
    </style>
    <rect x="0" y="0" width="3840" height="1080" fill="#ffffff"></rect>
    <rect x="0" y="0" width="3840" height="1080" fill="#ffffff"></rect>
    <path d="M0 305L91.5 320.3C183 335.7 366 366.3 548.8 365.3C731.7 364.3 914.3 331.7 1097.2 318.5C1280 305.3 1463 311.7 1645.8 299.3C1828.7 287 2011.3 256 2194.2 268.5C2377 281 2560 337 2742.8 344.5C2925.7 352 3108.3 311 3291.2 307.8C3474 304.7 3657 339.3 3748.5 356.7L3840 374L3840 1081L3748.5 1081C3657 1081 3474 1081 3291.2 1081C3108.3 1081 2925.7 1081 2742.8 1081C2560 1081 2377 1081 2194.2 1081C2011.3 1081 1828.7 1081 1645.8 1081C1463 1081 1280 1081 1097.2 1081C914.3 1081 731.7 1081 548.8 1081C366 1081 183 1081 91.5 1081L0 1081Z" fill="#d7596e"></path>
    <path d="M0 483L91.5 497.8C183 512.7 366 542.3 548.8 540.7C731.7 539 914.3 506 1097.2 487.2C1280 468.3 1463 463.7 1645.8 472.2C1828.7 480.7 2011.3 502.3 2194.2 515.5C2377 528.7 2560 533.3 2742.8 538C2925.7 542.7 3108.3 547.3 3291.2 543.5C3474 539.7 3657 527.3 3748.5 521.2L3840 515L3840 1081L3748.5 1081C3657 1081 3474 1081 3291.2 1081C3108.3 1081 2925.7 1081 2742.8 1081C2560 1081 2377 1081 2194.2 1081C2011.3 1081 1828.7 1081 1645.8 1081C1463 1081 1280 1081 1097.2 1081C914.3 1081 731.7 1081 548.8 1081C366 1081 183 1081 91.5 1081L0 1081Z" fill="#cf465d"></path>
    <path d="M0 625L91.5 623.8C183 622.7 366 620.3 548.8 638.8C731.7 657.3 914.3 696.7 1097.2 709.8C1280 723 1463 710 1645.8 689.7C1828.7 669.3 2011.3 641.7 2194.2 631.7C2377 621.7 2560 629.3 2742.8 640C2925.7 650.7 3108.3 664.3 3291.2 679.7C3474 695 3657 712 3748.5 720.5L3840 729L3840 1081L3748.5 1081C3657 1081 3474 1081 3291.2 1081C3108.3 1081 2925.7 1081 2742.8 1081C2560 1081 2377 1081 2194.2 1081C2011.3 1081 1828.7 1081 1645.8 1081C1463 1081 1280 1081 1097.2 1081C914.3 1081 731.7 1081 548.8 1081C366 1081 183 1081 91.5 1081L0 1081Z" fill="#c7314d"></path>
    <path d="M0 816L91.5 823.8C183 831.7 366 847.3 548.8 845C731.7 842.7 914.3 822.3 1097.2 816.7C1280 811 1463 820 1645.8 823C1828.7 826 2011.3 823 2194.2 836.2C2377 849.3 2560 878.7 2742.8 884C2925.7 889.3 3108.3 870.7 3291.2 854.7C3474 838.7 3657 825.3 3748.5 818.7L3840 812L3840 1081L3748.5 1081C3657 1081 3474 1081 3291.2 1081C3108.3 1081 2925.7 1081 2742.8 1081C2560 1081 2377 1081 2194.2 1081C2011.3 1081 1828.7 1081 1645.8 1081C1463 1081 1280 1081 1097.2 1081C914.3 1081 731.7 1081 548.8 1081C366 1081 183 1081 91.5 1081L0 1081Z" fill="#be133d"></path>
</svg>